<?xml version="1.0" ?><!DOCTYPE svg  PUBLIC '-//W3C//DTD SVG 1.1//EN'  'http://www.w3.org/Graphics/SVG/1.1/DTD/svg11.dtd'><svg height="2.7092mm" style="shape-rendering:geometricPrecision; text-rendering:geometricPrecision; image-rendering:optimizeQuality; fill-rule:evenodd; clip-rule:evenodd" version="1.1" viewBox="0 0 270.92 270.92" width="2.7092mm" xml:space="preserve" xmlns="http://www.w3.org/2000/svg" xmlns:xlink="http://www.w3.org/1999/xlink"><defs><style type="text/css">
   <![CDATA[
    .fil0 {fill:black;fill-rule:nonzero}
   ]]>
  </style></defs><g id="Layer_x0020_1"><path class="fil0" d="M136.04 147.96c-6.91,0 -12.54,-5.62 -12.54,-12.53 0,-6.91 5.63,-12.53 12.54,-12.53 6.9,0 12.53,5.62 12.53,12.53 0,6.91 -5.63,12.53 -12.53,12.53zm94.1 42.89c-4.14,-2.15 -8.69,-3.28 -13.36,-3.28 -16.1,0 -29.19,13.1 -29.19,29.2 0,4.67 1.12,9.21 3.28,13.36 -8.75,5.13 -18.07,9.02 -27.8,11.55 -3.36,-12.57 -14.73,-21.58 -28.06,-21.58 -13.21,0 -24.53,8.9 -28,21.32 -9.46,-2.53 -18.51,-6.32 -26.99,-11.29 2.16,-4.15 3.29,-8.69 3.29,-13.36 0,-16.1 -13.1,-29.2 -29.21,-29.2 -4.66,0 -9.21,1.13 -13.34,3.28 -5.07,-8.61 -8.9,-17.8 -11.43,-27.4 12.49,-3.42 21.44,-14.75 21.44,-28.02 0,-13.27 -8.95,-24.6 -21.44,-28.03 2.53,-9.6 6.36,-18.78 11.43,-27.4 4.13,2.16 8.68,3.29 13.34,3.29 16.11,0 29.21,-13.1 29.21,-29.2 0,-4.67 -1.13,-9.22 -3.29,-13.36 8.48,-4.97 17.53,-8.77 26.99,-11.3 3.47,12.44 14.79,21.32 28,21.32 13.3,0 24.65,-8.98 28.04,-21.52 9.75,2.55 19.08,6.4 27.81,11.53 -2.15,4.12 -3.27,8.67 -3.27,13.33 0,16.1 13.09,29.2 29.19,29.2 4.67,0 9.21,-1.13 13.34,-3.27 5.08,8.61 8.91,17.8 11.44,27.38 -12.5,3.43 -21.44,14.76 -21.44,28.03 0,13.27 8.96,24.62 21.47,28.04 -2.55,9.58 -6.39,18.77 -11.45,27.38zm19.73 -32.92c-0.68,-0.96 -1.71,-1.56 -2.87,-1.69 -10.68,-1.19 -18.75,-10.14 -18.75,-20.81 0,-10.68 8.05,-19.61 18.72,-20.8 1.15,-0.13 2.18,-0.74 2.85,-1.69 0.68,-0.94 0.92,-2.11 0.67,-3.24 -2.95,-13.27 -8.21,-25.87 -15.6,-37.47 -0.6,-0.95 -1.57,-1.61 -2.67,-1.82 -1.09,-0.2 -2.23,0.06 -3.14,0.71 -3.65,2.64 -7.9,4.03 -12.3,4.03 -11.62,0 -21.06,-9.45 -21.06,-21.06 0,-4.39 1.39,-8.64 4.03,-12.28 0.66,-0.91 0.91,-2.05 0.7,-3.15 -0.21,-1.11 -0.87,-2.07 -1.81,-2.68 -11.69,-7.44 -24.45,-12.71 -37.91,-15.66 -1.13,-0.25 -2.3,-0.01 -3.24,0.67 -0.95,0.68 -1.55,1.71 -1.68,2.85 -1.16,10.71 -10.12,18.78 -20.8,18.78 -10.62,0 -19.56,-8.01 -20.8,-18.63 -0.14,-1.14 -0.75,-2.17 -1.69,-2.84 -0.95,-0.68 -2.15,-0.92 -3.26,-0.64 -13.13,2.97 -25.58,8.18 -37.02,15.45 -0.95,0.61 -1.61,1.57 -1.81,2.68 -0.21,1.1 0.03,2.24 0.7,3.14 2.64,3.67 4.04,7.92 4.04,12.31 0,11.61 -9.45,21.06 -21.07,21.06 -4.39,0 -8.65,-1.39 -12.3,-4.03 -0.9,-0.66 -2.05,-0.92 -3.14,-0.71 -1.11,0.2 -2.07,0.86 -2.68,1.82 -7.38,11.57 -12.62,24.17 -15.57,37.47 -0.26,1.13 -0.01,2.3 0.66,3.24 0.66,0.95 1.71,1.56 2.85,1.69 10.67,1.19 18.72,10.12 18.72,20.8 0,10.67 -8.05,19.61 -18.72,20.8 -1.14,0.13 -2.19,0.74 -2.85,1.68 -0.67,0.95 -0.92,2.11 -0.66,3.24 2.95,13.31 8.19,25.92 15.57,37.49 0.61,0.95 1.57,1.61 2.68,1.82 1.09,0.21 2.24,-0.05 3.14,-0.72 3.65,-2.64 7.91,-4.04 12.3,-4.04 11.62,0 21.07,9.45 21.07,21.07 0,4.39 -1.4,8.64 -4.04,12.32 -0.67,0.9 -0.91,2.03 -0.7,3.13 0.2,1.1 0.86,2.07 1.81,2.67 11.44,7.28 23.89,12.49 37.02,15.46 1.12,0.27 2.31,0.03 3.26,-0.64 0.94,-0.66 1.55,-1.7 1.69,-2.85 1.24,-10.61 10.18,-18.62 20.8,-18.62 10.72,0 19.67,8.09 20.81,18.83 0.13,1.15 0.73,2.2 1.67,2.88 0.7,0.5 1.53,0.76 2.38,0.76 0.29,0 0.58,-0.03 0.88,-0.1 13.43,-2.96 26.18,-8.25 37.91,-15.72 0.94,-0.6 1.6,-1.57 1.81,-2.67 0.21,-1.1 -0.05,-2.23 -0.7,-3.13 -2.65,-3.68 -4.05,-7.93 -4.05,-12.32 0,-11.62 9.44,-21.07 21.06,-21.07 4.41,0 8.66,1.4 12.31,4.04 0.9,0.67 2.06,0.93 3.14,0.72 1.11,-0.21 2.07,-0.87 2.67,-1.82 7.38,-11.57 12.64,-24.18 15.63,-37.46 0.25,-1.14 0.01,-2.32 -0.66,-3.25zm-113.83 -43.17c-11.39,0 -20.67,9.27 -20.67,20.67 0,11.4 9.28,20.67 20.67,20.67 11.39,0 20.66,-9.27 20.66,-20.67 0,-11.4 -9.27,-20.67 -20.66,-20.67z"/></g></svg>