<?xml version="1.0" ?><svg id="Layer_1" style="enable-background:new 0 0 382.787 382.787;" version="1.1" viewBox="0 0 382.787 382.787" xml:space="preserve" xmlns="http://www.w3.org/2000/svg" xmlns:xlink="http://www.w3.org/1999/xlink"><g id="XMLID_278_"><path d="M364.208,0h-104v41.52c-21.022-10.948-44.894-17.148-70.19-17.148   c-84.071,0-152.468,68.396-152.468,152.468c0,44.132,18.855,83.937,48.923,111.805l-64.966,64.967   c-3.903,3.902-3.903,10.254,0,14.157c1.891,1.89,4.405,2.931,7.078,2.931s5.187-1.041,7.078-2.932l66.432-66.433   c24.863,17.611,55.205,27.973,87.923,27.973c30.671,0,59.251-9.112,83.19-24.759v39.544c0,21.336,17.165,38.693,38.5,38.693   c22.146,0,38.5-17.788,38.5-33.693V78h14V0z M347.208,73h-10V5h10V73z M277.208,51.837V5h10v54.454   C283.984,56.78,280.646,54.242,277.208,51.837z M292.208,5h10v68h-0.66c-2.982-3.201-6.095-6.278-9.34-9.214V5z M307.208,5h10v68   h-10V5z M322.208,5h10v68h-10V5z M265.208,5h7v43.473c-2.291-1.472-4.627-2.879-7-4.23V5z M32.128,364.232   c-0.947,0.946-2.206,1.468-3.543,1.468s-2.596-0.521-3.543-1.467c-0.946-0.946-1.467-2.204-1.467-3.543s0.521-2.597,1.467-3.543   l65.152-65.152c2.535,2.201,5.148,4.313,7.826,6.346L32.128,364.232z M42.55,176.84c0-81.314,66.154-147.468,147.468-147.468   c81.314,0,147.468,66.153,147.468,147.468s-66.154,147.468-147.468,147.468C108.704,324.308,42.55,258.155,42.55,176.84z    M311.708,377.787c-18.579,0-33.5-15.115-33.5-33.693V301.15c38.874-27.659,64.278-73.073,64.278-124.31   c0-13.78-1.849-27.135-5.292-39.84h8.013v212.093C345.208,362.362,330.684,377.787,311.708,377.787z M345.208,132h-9.454   c-6.19-20.076-16.425-38.391-29.745-54h39.199V132z M359.208,73h-7V5h7V73z" id="XMLID_690_"/><path d="M190.018,39.803c-75.562,0-137.036,61.475-137.036,137.037s61.474,137.037,137.036,137.037   c75.563,0,137.038-61.475,137.038-137.037S265.581,39.803,190.018,39.803z M190.018,308.877   c-72.805,0-132.036-59.231-132.036-132.037S117.213,44.803,190.018,44.803c72.806,0,132.038,59.231,132.038,132.037   S262.824,308.877,190.018,308.877z" id="XMLID_946_"/><path d="M213.56,152.383l38.297,1.957l-28.463-25.697l28.463-25.696l-38.297,1.956l1.956-38.297L189.82,95.069   l-25.697-28.463l1.956,38.297l-38.296-1.956l28.463,25.696l-28.463,25.697l38.296-1.957l-1.956,38.298l25.697-28.464l25.696,28.464   L213.56,152.383z M189.82,154.756l-19.986,22.138l1.521-29.786l-29.786,1.521l22.137-19.986l-22.137-19.985l29.786,1.521   l-1.521-29.785l19.986,22.137l19.985-22.137l-1.521,29.785l29.785-1.521l-22.137,19.985l22.137,19.986l-29.785-1.521l1.521,29.786   L189.82,154.756z" id="XMLID_949_"/><path d="M312.372,176.84c0-5.931-0.432-11.761-1.251-17.469l0.146-0.053l-0.326-2.035   c-4.203-26.221-17.148-50.803-36.453-69.22l-1.495-1.427l-0.174,0.124c-21.847-20.145-51.009-32.471-82.999-32.471   c-35.822,0-68.102,15.451-90.53,40.036l-0.172-0.105l-1.387,1.575c-3.044,3.457-5.925,7.125-8.562,10.9l-1.698,2.432l0.195,0.092   c-11.36,17.104-18.543,37.208-20.081,58.851l-0.258-0.286l-0.124,6.291c-0.013,0.612,0.005,1.228,0.005,1.843v0.073l0.067,1.369   c0.016,3.72,0.2,7.401,0.542,11.037l0.093,1.886l-0.016,0.146c3.569,32.379,19.576,61.511,45.071,82.029l4.349,3.5l-0.02-0.395   c20.322,14.97,45.408,23.83,72.527,23.83c0.252,0,0.502-0.008,0.753-0.01l-0.13,0.172l2.401-0.2   c20.907-0.509,40.532-6.281,57.6-16.037l-0.016,0.308l4.06-2.523c4.537-2.819,8.919-5.954,13.024-9.318l0.881-0.971   c2.782-2.33,5.465-4.776,8.03-7.341l0.142,0.157l1.86-1.942c14.369-15.002,24.751-33.496,30.021-53.482l0.873-3.309l-0.194,0.01   C311.246,195.889,312.372,186.494,312.372,176.84z M272.391,93.299c16.875,16.681,28.743,38.417,33.105,62.727   c-12.638,3.754-26.515,0.311-35.902-9.077c-6.83-6.831-10.592-15.912-10.592-25.571c0-9.66,3.762-18.741,10.593-25.571   C270.469,94.932,271.407,94.096,272.391,93.299z M110.543,95.807c14.099,14.1,14.099,37.042,0,51.143   c-9.535,9.533-23.597,12.915-36.369,8.924c2.92-16.148,9.152-31.157,17.963-44.3c0.502,0.367,0.981,0.768,1.426,1.213   c4.737,4.737,4.737,12.446,0,17.184c-1.74,1.739-2.698,4.053-2.698,6.514c0,2.46,0.958,4.773,2.698,6.513   c1.739,1.739,4.052,2.697,6.513,2.697s4.774-0.958,6.513-2.698c11.919-11.919,11.919-31.314,0-43.235l-0.001-0.001   c-0.938-0.938-1.959-1.813-3.038-2.633c1.275-1.378,2.581-2.726,3.92-4.042C108.555,93.943,109.587,94.851,110.543,95.807z    M100.225,100.878c1.013,0.747,1.963,1.552,2.828,2.416c9.97,9.972,9.97,26.194,0,36.165c-0.795,0.796-1.853,1.233-2.978,1.233   c-1.125,0-2.183-0.438-2.978-1.232c-1.642-1.643-1.642-4.313,0-5.956c6.686-6.687,6.686-17.567,0-24.255   c-0.65-0.65-1.35-1.236-2.087-1.769C96.671,105.217,98.411,103.015,100.225,100.878z M72.409,180.887l19.986,22.137l19.986-22.137   l-1.521,29.785l29.786-1.521l-22.137,19.985l22.137,19.986l-29.786-1.521l0.867,16.979c-21.932-19.542-36.516-47.157-39.034-78.136   L72.409,180.887z M149.688,287.303l0.264-0.013c-0.489-10.17,3.354-20.126,10.545-27.317c14.1-14.1,37.042-14.1,51.142,0   c7.921,7.921,11.658,18.805,10.313,29.925c-1.953,0.556-3.928,1.059-5.921,1.515c1.97-9.97-1.075-20.308-8.345-27.58   c-4.849-4.849-11.27-7.833-18.08-8.833h-0.004c-5.045,0-9.623,3.148-10.205,8.185c-0.583,5.046,3.046,9.719,8.091,10.302   c2.74,0.317,5.219,1.517,7.17,3.467c2.29,2.29,3.552,5.341,3.552,8.591c0,3.249-1.262,6.3-3.552,8.591   c-0.039,0.039-0.077,0.084-0.116,0.125c-1.568,0.062-3.141,0.103-4.723,0.103C175.732,294.363,162.216,291.869,149.688,287.303z    M198.194,273.418c-2.756-2.756-6.259-4.45-10.131-4.898c-2.307-0.267-3.966-2.36-3.699-4.668c0.248-2.142,2.077-3.727,4.189-3.727   c0.158,0,0.319,0.01,0.479,0.027c5.694,0.659,11.063,3.255,15.118,7.309c6.41,6.411,8.908,15.645,6.686,24.393   c-3.148,0.681-6.35,1.233-9.574,1.655c1.273-2.426,1.948-5.143,1.948-7.965C203.211,280.958,201.429,276.653,198.194,273.418z    M227.127,288.29c0.81-11.88-3.46-23.361-11.952-31.853c-16.05-16.049-42.164-16.049-58.212,0c-7.691,7.691-12.017,18.162-12.05,29   c-10.103-4.193-19.499-9.754-27.955-16.455l-0.822-16.105l38.297,1.957l-28.463-25.697l28.464-25.696l-38.296,1.956l1.958-38.297   l-25.693,28.463l-20.048-22.211c0.124-4.222,0.475-8.387,1.034-12.487c3.798,1.112,7.686,1.664,11.552,1.664   c10.738,0,21.288-4.193,29.138-12.044c16.049-16.05,16.049-42.164,0-58.213c-0.923-0.924-1.908-1.808-2.937-2.653   c20.846-18.823,48.446-30.301,78.679-30.301c30.346,0,58.042,11.562,78.916,30.512c-0.935,0.782-1.832,1.596-2.677,2.442   c-7.775,7.774-12.057,18.111-12.057,29.106c0,10.994,4.281,21.332,12.057,29.106c7.834,7.835,18.414,12.034,29.173,12.034   c3.694,0,7.408-0.503,11.04-1.516c0.701,5.182,1.071,10.467,1.071,15.838c0,9.766-1.205,19.254-3.461,28.332l-4.402,0.225   l1.956-38.297l-25.696,28.463L250.042,167.1l1.956,38.297l-38.297-1.956l28.464,25.696l-28.464,25.697l38.297-1.957l-1.247,24.424   C243.369,281.795,235.454,285.496,227.127,288.29z M276.51,256.104l-0.77-0.854l-10.555,11.691   c-2.966,2.485-6.054,4.827-9.257,7.015l1.345-26.353l-29.785,1.521l22.138-19.986l-22.138-19.985l29.785,1.521l-1.521-29.785   l19.986,22.137l19.985-22.137l-1.521,29.785l8.293-0.423C297.368,227.52,288.372,243.142,276.51,256.104z" id="XMLID_952_"/></g><g/><g/><g/><g/><g/><g/><g/><g/><g/><g/><g/><g/><g/><g/><g/></svg>