<?xml version="1.0" ?><svg style="enable-background:new 0 0 512 512;" version="1.1" viewBox="0 0 512 512" xml:space="preserve" xmlns="http://www.w3.org/2000/svg" xmlns:xlink="http://www.w3.org/1999/xlink"><g id="_x33_2_x2C__Disease_x2C__infected_x2C__infection_x2C__kidney"><g id="XMLID_19_"><g id="XMLID_20_"><path d="M430.347,229.461c2.46,1.276,5.475,0.304,6.74-2.138c15.17-29.268,15.627-64.445,1.223-94.099     c-1.205-2.483-4.198-3.52-6.682-2.313c-2.484,1.207-3.52,4.198-2.313,6.682c13.03,26.827,12.616,58.65-1.107,85.128     C426.938,225.173,427.895,228.191,430.347,229.461z" id="XMLID_870_"/><path d="M406.606,312.021c17.414-3.721,32.337-14,42.02-28.945c0.088-0.136,0.169-0.274,0.243-0.418     l10.615-20.479c26.021-50.206,26.806-110.546,2.1-161.412c-13.434-27.627-12.647-26.112-12.958-26.593     c-20.032-30.922-61.271-39.74-92.2-19.702c-30.049,19.468-39.009,58.701-21.626,89.029H325.5c-32.809,0-59.5,26.691-59.5,59.5     v150.5c0,2.762,2.238,5,5,5c2.762,0,5-2.238,5-5V203c0-27.294,22.206-49.5,49.5-49.5H366c5.514,0,10,4.486,10,10s-4.486,10-10,10     c-21.368,0-20.32,0-41.75,0c-15.577,0-28.25,12.673-28.25,28.25V353.5c0,2.762,2.238,5,5,5c2.762,0,5-2.238,5-5V201.75     c0-10.063,8.186-18.25,18.25-18.25h21.708c-0.797,9.634-3.943,18.908-9.234,27.077c-9.683,14.945-12.966,32.766-9.244,50.18     C335.154,296.671,370.467,319.741,406.606,312.021z M345.117,216.014c6.345-9.794,10.063-20.944,10.88-32.514H366     c11.028,0,20-8.972,20-20s-8.972-20-20-20h-19.484c-0.46-0.777-0.927-1.537-1.399-2.267c-17.03-26.284-9.541-61.339,16.746-78.37     c26.131-16.931,61.078-9.649,78.206,16.495l12.52,25.776c23.332,48.038,22.591,105.026-1.984,152.441l-10.501,20.26     c-8.233,12.597-20.862,21.26-35.588,24.406c-30.631,6.541-60.712-12.945-67.258-43.575     C334.096,243.865,336.886,228.717,345.117,216.014z" id="XMLID_1387_"/><path d="M82.684,137.594c1.207-2.484,0.172-5.476-2.313-6.682c-2.486-1.207-5.476-0.17-6.682,2.313     c-14.404,29.653-13.946,64.83,1.224,94.099c1.267,2.444,4.281,3.413,6.74,2.138c2.452-1.27,3.409-4.288,2.139-6.74     C70.068,196.243,69.654,164.419,82.684,137.594z" id="XMLID_867_"/><path d="M186.5,143.5h-9.299c8.174-14.261,10.781-30.81,7.319-47.009c-3.721-17.414-14.001-32.337-28.945-42.02     c-30.922-20.035-72.165-11.225-92.2,19.702c-0.111,0.172-0.212,0.35-0.301,0.534l-12.658,26.059     c-24.706,50.867-23.921,111.207,2.101,161.412l10.615,20.479c0.074,0.144,0.155,0.282,0.243,0.418     c19.895,30.706,61.213,39.776,92.2,19.701c30.85-19.988,39.688-61.349,19.701-92.2c-5.291-8.169-8.438-17.443-9.234-27.077     h21.708c10.063,0,18.25,8.187,18.25,18.25V463.5c0,2.762,2.238,5,5,5c2.762,0,5-2.238,5-5V201.75     c0-15.577-12.673-28.25-28.25-28.25c-21.483,0-20.326,0-41.75,0c-5.514,0-10-4.486-10-10s4.486-10,10-10h40.5     c27.294,0,49.5,22.206,49.5,49.5v260.5c0,2.762,2.238,5,5,5c2.762,0,5-2.238,5-5V203C246,170.191,219.309,143.5,186.5,143.5z      M126,163.5c0,11.028,8.972,20,20,20h10.004c0.817,11.57,4.535,22.721,10.88,32.514c16.989,26.223,9.477,61.379-16.746,78.37     c-26.157,16.947-61.203,9.517-78.241-16.547l-10.501-20.261c-24.575-47.415-25.317-104.402-1.984-152.441l12.521-25.776     c17.03-25.991,51.921-33.525,78.206-16.495c26.279,17.025,33.779,52.081,16.747,78.368c-0.479,0.739-0.944,1.492-1.403,2.269H146     C134.972,143.5,126,152.472,126,163.5z" id="XMLID_1383_"/><path d="M436.732,388.564c-0.92-8.767-4.275-17.319-10.069-24.557c0.479-0.229,0.99-0.393,1.523-0.428     c2.087-0.14,4.225,1.764,5.67,3.38c1.842,2.057,5.002,2.233,7.061,0.393c2.058-1.842,2.233-5.003,0.393-7.061     c-4.258-4.757-8.892-7.004-13.772-6.69c-3.349,0.218-6.066,1.633-8.077,3.156c-7.044-5.719-15.494-9.242-24.509-10.229     c0.181-0.51,0.435-0.997,0.8-1.404c1.374-1.533,4.22-1.714,6.376-1.593c2.742,0.142,5.116-1.957,5.27-4.715     c0.153-2.757-1.958-5.116-4.715-5.27c-6.369-0.357-11.241,1.329-14.469,5.006c-2.214,2.521-3.135,5.444-3.479,7.942     c-9.025,0.938-17.49,4.422-24.562,10.097c-0.228-0.477-0.393-0.989-0.428-1.521c-0.134-2.067,1.764-4.225,3.38-5.67     c2.058-1.842,2.233-5.003,0.393-7.061c-1.843-2.058-5.003-2.234-7.061-0.393c-4.757,4.257-7.008,8.89-6.69,13.772     c0.218,3.349,1.633,6.067,3.156,8.077c-5.841,7.212-9.237,15.755-10.204,24.519c-0.518-0.181-1.016-0.438-1.43-0.81     c-1.533-1.374-1.712-4.225-1.593-6.375c0.153-2.757-1.958-5.116-4.715-5.27c-2.761-0.153-5.117,1.957-5.27,4.715     c-0.354,6.373,1.33,11.241,5.006,14.468c2.53,2.222,5.468,3.147,7.972,3.488c0.921,8.765,4.276,17.316,10.069,24.553     c-0.478,0.228-0.991,0.394-1.523,0.428c-2.06,0.154-4.224-1.763-5.67-3.38c-1.843-2.058-5.003-2.234-7.061-0.393     c-2.058,1.842-2.233,5.003-0.393,7.06c3.688,4.12,8.274,7.046,13.771,6.69c3.349-0.218,6.066-1.633,8.077-3.156     c7.044,5.719,15.494,9.242,24.509,10.229c-0.181,0.51-0.435,0.997-0.8,1.404c-1.373,1.532-4.221,1.71-6.375,1.593     c-2.768-0.147-5.117,1.957-5.27,4.715c-0.153,2.757,1.958,5.116,4.715,5.27c5.526,0.312,10.846-0.878,14.469-5.006     c2.214-2.521,3.135-5.444,3.478-7.942c9.024-0.938,17.49-4.422,24.562-10.097c0.228,0.478,0.394,0.989,0.428,1.522     c0.134,2.067-1.764,4.225-3.38,5.67c-2.058,1.842-2.233,5.003-0.393,7.061c1.843,2.058,5.003,2.233,7.06,0.393     c4.757-4.257,7.008-8.89,6.691-13.771c-0.218-3.349-1.633-6.067-3.156-8.077c5.841-7.212,9.237-15.755,10.204-24.518     c0.519,0.181,1.016,0.437,1.43,0.809c1.533,1.374,1.712,4.226,1.593,6.376c-0.153,2.757,1.958,5.116,4.715,5.27     c2.807,0.145,5.119-1.994,5.27-4.715c0.354-6.374-1.33-11.242-5.006-14.47C442.172,389.824,439.237,388.904,436.732,388.564z      M389.939,430.853c-0.124-0.006-0.248-0.001-0.374,0.002c-20.772-0.078-37.085-16.927-37.147-37.195     c0.001-0.034-0.003-0.069-0.002-0.105c-0.006-20.394,16.379-37.2,37.077-37.318c0.076,0.004,0.15,0.021,0.226,0.021     c0.07,0,0.143-0.017,0.214-0.021c20.635,0.12,37.073,16.87,37.073,37.282C427.02,413.787,410.753,430.729,389.939,430.853z" id="XMLID_1380_"/><path d="M404.308,395.821c-3.869,3.492-9.195,6.521-10.96,6.26c-5.801-6.348-15.164-3.249-21.898,2.668     c-2.074,1.823-2.278,4.982-0.455,7.057c1.826,2.077,4.982,2.275,7.057,0.455c2.372-2.085,6.965-4.496,7.934-3.414     c1.752,1.959,4.121,3.069,6.85,3.212c7.624,0.386,16.486-7.283,18.188-8.825c2.043-1.853,2.197-5.011,0.346-7.057     C409.517,394.129,406.355,393.975,404.308,395.821z" id="XMLID_862_"/><path d="M383.107,387.383c3.034,0.878,6.283,0.417,9.377-1.646c2.298-1.531,2.919-4.636,1.387-6.934     c-1.532-2.298-4.636-2.919-6.934-1.387c-0.692,0.461-0.954,0.388-1.04,0.362c-1.09-0.31-2.795-2.49-3.594-4.236     c-1.128-2.509-4.075-3.638-6.591-2.52c-2.523,1.122-3.66,4.076-2.539,6.6C373.759,378.942,376.993,385.609,383.107,387.383z" id="XMLID_861_"/><path d="M289.665,93.5c13.785,0,25-11.215,25-25s-11.215-25-25-25c-13.785,0-25,11.215-25,25     S275.88,93.5,289.665,93.5z M289.665,53.5c8.271,0,15,6.729,15,15s-6.729,15-15,15c-8.272,0-15-6.729-15-15     S281.394,53.5,289.665,53.5z" id="XMLID_1375_"/><path d="M89.665,383.5c-19.299,0-35,15.701-35,35s15.701,35,35,35c19.299,0,35-15.701,35-35     S108.964,383.5,89.665,383.5z M89.665,443.5c-13.785,0-25-11.215-25-25s11.215-25,25-25c13.785,0,25,11.215,25,25     S103.451,443.5,89.665,443.5z" id="XMLID_1372_"/><circle cx="462.165" cy="326" id="XMLID_856_" r="7.5"/><circle cx="232.165" cy="101" id="XMLID_855_" r="7.5"/><circle cx="467.165" cy="51" id="XMLID_854_" r="7.5"/><circle cx="42.165" cy="61" id="XMLID_853_" r="7.5"/><circle cx="297.165" cy="421" id="XMLID_852_" r="7.5"/><circle cx="47.165" cy="326" id="XMLID_851_" r="7.5"/><circle cx="172.165" cy="406" id="XMLID_850_" r="7.5"/></g></g></g><g id="Layer_1"/></svg>